<svg xmlns="http://www.w3.org/2000/svg" viewBox="0 0 304.25 188.21"><defs><style>.cls-1{fill:#231f20;}</style></defs><g id="Layer_8" data-name="Layer 8"><path class="cls-1" d="M165.76,10.8c-7-2.51-12.4.48-14.42,4.24a19.63,19.63,0,0,0-2.16,7.67s-1.6-3.14-3.13-3.49a6.91,6.91,0,0,1-2.51-.9l-1.88-.49s0-1.74-2.37-.49-3.13,1-3.13,2.86a9,9,0,0,0,.83,3.55,58.8,58.8,0,0,0-1.11,5.78c-.63,4.11-1.6,9.26-1.6,9.26s-4.81,1.26-3.07,4.53,5.16,4.25,5.57,6.41,1.89,2.51,4.11,3.41,3.77.84,5.16,4.88,3.41,3.9,4,9a43.1,43.1,0,0,0,1.6,8s-1.88.28-.84,2.79,2.23,2.5,2.23,2.5l.14,2.51s-4,5.64-4.39,10.45,1,7.52,2.51,10.51a11.2,11.2,0,0,1,1.6,4.81s-3.48,10.66-4.38,13.3-.49,3.76-2.51,6.27-8.29,10-12.68,14.7a64,64,0,0,0-8,11.28l-3.9,2.3s-6.4-.28-6.06,2.85.91,7.46.91,10.17-1.25,5.92,0,9.82a9.08,9.08,0,0,0,5.15,5.92,2.14,2.14,0,0,0,3-2c0-1.53-.14-3.41.76-5a92,92,0,0,0,3.62-8.57l2.79-2.37,1.25,2.37s7.53-10,11.29-13.58,7.66-8.15,10.31-11,5.64-6.55,5.64-6.55.48,9.26,1.39,17.34,2,14.91,2.51,17.34a6.36,6.36,0,0,0,1.39,3.35l1.25.14s-1.74,3.62-.48,5.29,8.49,1.6,15,1.6,7.52-1.25,4-3.62-6.41-4.53-6.41-4.53v-1.25s-1.39-11.91-1.53-19.36-1-18.46-1-18.46,1-2.23,1-8.29V110.39a70.74,70.74,0,0,0-.49-8.15s2.79-4.18,2.16-8.7a79.05,79.05,0,0,0-1.53-8l.28-3-.42-1.67a90.27,90.27,0,0,0,.28-12c-.28-5.5,0-11.42,0-11.42l7.87,7.8s-1.12,4.74,1,7.66,5,3.76,7.18-.14-.14-6.27-2.65-7.52a8.42,8.42,0,0,0-5.15-.63l-7.53-8.42s2.51-11.29,1.75-15.6-2.65-6.76-4.39-7.67-3.41-2.09-3.41-2.09l-.49-.9.49-1.6s2.36-1.19,1.39-2.16-1.12-1.74-1.74-3.28-.14-4-.63-5.92a8.62,8.62,0,0,0-2.3-4.38,19.21,19.21,0,0,0-3.27-1.74ZM143.7,20.45a19.79,19.79,0,0,1,2.59,1.73c1.08,1,3.39.36,3.39.36l3.88,4.68a8,8,0,0,1-1.94,2.44c-1.66,1.44-1,1.73-1,1.73a11.64,11.64,0,0,1-2.88-.65,3.46,3.46,0,0,0-3.24.36,11.78,11.78,0,0,1-1-5C143.48,23,143.7,20.45,143.7,20.45Z"/></g></svg>