<svg xmlns="http://www.w3.org/2000/svg" viewBox="0 0 304.25 188.21"><defs><style>.cls-1{fill:#231f20;}</style></defs><g id="Layer_6" data-name="Layer 6"><path class="cls-1" d="M133.23,19.41c-5.69,1.87-7.28,5.33-6.2,10.29s3,6.56,3,6.56l1.8,3.16A5.69,5.69,0,0,0,129,42.09a81.37,81.37,0,0,1-4.54,7.77c-1.94,3-3,3.68-2.88,8.43s.72,9.5,3.39,17.35,3.52,9.86,3.52,9.86,4.61-1.65,5.76-2,3.1-.94,3.1-.94l3.17,2.88a19.8,19.8,0,0,0-.22,5.69,7.24,7.24,0,0,0,2.52,4.46S141.58,95,141.58,99s1,5.11,1,5.11-2-.36-2.09,3a9.07,9.07,0,0,0,1.08,5.33,5.8,5.8,0,0,0-2.52,5,16.81,16.81,0,0,0,1.08,6s-2.67,3.38-3.75,5-2.3,5-3.38,7.85-3.6,9.57-3.89,12.45-1.44,4.25-2.88,7.13-3.38,5.47-4.46,8.71a17.62,17.62,0,0,0-1.08,5.11l1.65.36a14.59,14.59,0,0,0-4.46,4c-2.52,3-6.77,6.41-4.32,8s7.34,3.52,9.79,1.22a36.1,36.1,0,0,0,5.19-6.91l.86-4,3.24.21s5.33-13.89,9.58-20.8,11.44-20.67,13.17-26.57,2.16-7.42,3.39-9.58,1.65-2.88,1.65-2.88-.72,8.21,1,11.81,3,6.41,3,6.41,0,4.75.22,11.52.5,10,1.08,15.84A85.94,85.94,0,0,0,167.5,170a45.11,45.11,0,0,0,1.29,4.46,13.64,13.64,0,0,0-1.08,5.33c.15,2.31,2.16,3.17,8.86,3s10.87.14,10.87-1.08,1.08-3-1.44-3.75-5.33.36-5.33-2.52-.14-2.81-.14-2.81l1.08-.36s.14-17.78.14-23,.36-10.16-1.22-15.63-3-8.06-2.52-13.39a101.93,101.93,0,0,0,.58-22c-.94-9.79,0-10.37-1.8-13.39a19.85,19.85,0,0,0-3.89-4.76s-1.3-8.06-1.44-12.16-.36-8.36-.36-8.36l6.41-2.3A25.25,25.25,0,0,0,172.32,47c-4.1-4.82-7.49-8.71-8.85-11s-5.91-3-9.44-3a30.94,30.94,0,0,0-8.42,1.73,25.62,25.62,0,0,0-.5-6.55,18.84,18.84,0,0,0-2.31-6.05C140,16.89,133.23,19.41,133.23,19.41Z"/></g></svg>