<svg xmlns="http://www.w3.org/2000/svg" viewBox="0 0 304.25 188.21"><defs><style>.cls-1{fill:#231f20;}</style></defs><g id="Layer_4" data-name="Layer 4"><path class="cls-1" d="M130,19l-1.44-.72-1.15.15L125.91,18l-1.88.86h-1.22l-1-.58-1.15.87-1.37-.87-2,.87-1.37-.58L114.17,20,113,23.13a3.47,3.47,0,0,0-1.23,2.59A1.36,1.36,0,0,0,113.45,27s.14,6.55,1.73,10.65,4,5.62,5.76,7.63,1.87,2.67,4.53,6.77,5.26,7.49,5.26,7.49.79,10,.79,13.82-.43,5.4.58,7.35,1.15,1.87,1.15,1.87l.14,2.23s-6.33,1.3-6.62,5.4,1.94,5.19,1.94,5.19a147.35,147.35,0,0,0-3.81,17c-1.51,9.14-.87,14.25-1.66,17.21a71.8,71.8,0,0,0-3.17,17.64c-.5,9.21-1.36,11.44-.79,15.26a39,39,0,0,1,.65,5.83,3,3,0,0,0-1.94,2.95,10,10,0,0,0,.57,3.68s-2.3,4.24-4.25,5.61-2.52,3.31,3.1,3.6,8.06,0,9.36-1.29,1.51-1.73,1.51-3.39v-3.09l.72-.29s.43-9.94,2.38-16.13,4.25-17.35,5.54-23,3.53-7.2,3.53-9.14.72-3.46,1.58-6.27,2.67-7.34,3.68-8.57,1.65-1.87,1.65-1.87,2.67,7.49,3.39,10.3,1.72,8.49,2.44,12.6,1.08,5.76,3,9.14,5.47,10.08,6.76,14.62,4,13.39,4.83,17.35,1.65,4.68,1.65,4.68l1-.72s-1.15,3.82.29,4.1,8.5.58,11.3.58,5.12.94,5.12-1-.87-3.38-3.32-4.25a9.55,9.55,0,0,1-4.75-4.1,3.15,3.15,0,0,0-.43-.86S177,165.55,176,164l-1-1.44a33,33,0,0,0-.87-6.62c-.86-3.82-1.44-11.16-2.23-15s-1.73-7.92-1.73-7.92l-1.29-.86a9.16,9.16,0,0,1-.79-4.75,17.09,17.09,0,0,0,0-4.25v-4.82a6,6,0,0,0-.87-2.81,16.7,16.7,0,0,0,.72-3.53c0-1.15-1.29-1.58-1.29-1.58s1-2.24.72-3.1a29,29,0,0,0-1.59-3.1l.15-7.2s2.44-.14,1.15-4-3.82-9.79-3.82-9.79l-.72-2.95s-1.65-5.76-1.94-8.06a83.1,83.1,0,0,1-1-9.29c0-3-2.95-8.5-3.38-11.74s.14-7.34-1.59-9.72-3.38-4.39-4-6.26a14.42,14.42,0,0,0-1.94-3.82,8.44,8.44,0,0,0,.57-2.95c-.14-1-2-.58-2-.58a14.47,14.47,0,0,0,1.58-4.53,8.27,8.27,0,0,0-1-5s24.34-4.25,42.7-5.69,24.62-2.23,24.62-2.23,3.1,5.9,5,6.33,2.09-2.95,1.66-5.47.57-3-2.52-2.59-4.83.29-8.35.72-35.5,3-47,4.68-17.13,2.38-17.13,2.38-2.24-2.38-7.78-2S131.52,18,131.52,18L130,19Zm.72,4.9s.14,4.39.36,6.77a5.8,5.8,0,0,0,.86,3.17,8.86,8.86,0,0,0,.44,4,30.33,30.33,0,0,0,2,3.38l-1.87,2.23-3.82-3.09s-1.44-5.55-2.23-7.92-1-4.54.94-6.34A9.56,9.56,0,0,1,130.73,23.85Z"/></g></svg>