<svg id="Layer_1" data-name="Layer 1" xmlns="http://www.w3.org/2000/svg" viewBox="0 0 304.25 188.21"><defs><style>.cls-1{fill:#231f20;}</style></defs><path class="cls-1" d="M143.39,15.51c-5.76.21-8.14,3.45-8.57,6.91a34.24,34.24,0,0,0,1,10.73c.79,2.81,1.44,4.89,1.44,4.89s-5.26,4.68-7.92,7.28-6.27,4.89-5.62,10.51,3,14,4,19.94S128.92,82,128.92,82l6.33-.28L136.62,85a30.25,30.25,0,0,1-3.17,2.59c-1.65,1.15-2.3.65-3.74,2.52s-1.51,2.81-.22,3.89l2,1.65a48.94,48.94,0,0,1-1.8,9.87c-1.66,6-1.66,12.38-1.66,15.84s.51,8.21-1.15,11-3.1,2.45-3.1,3.6a182.92,182.92,0,0,1-4,21.89c-2.16,8.28-1.51,8.28-2.16,10.08a8,8,0,0,0-.64,3.75,15.57,15.57,0,0,0,.28,2.95,8,8,0,0,1-2.3,3.17c-1.44.93-4.54,2.8-3.24,4s4,2.3,8.06,1.94,4.61-.5,5.55-1.51,1.37-5.11,1.37-5.11l1-.29a33.12,33.12,0,0,1,2.09-4.9,24.58,24.58,0,0,0,3.1-7.77c.86-4,4.17-17.28,6.26-24.84s3.46-12.17,4.11-15.77,3-8.93,4.46-11.52a45.56,45.56,0,0,1,2.66-4.32,46.3,46.3,0,0,0,2.31,4.25,19.11,19.11,0,0,0,1.65,2.37,17.34,17.34,0,0,0,1.59,2.09,3.33,3.33,0,0,1,.72,1.3l2.09,58.89-.44,1a10,10,0,0,0-5.11,1.66c-2,1.51-3,2.8-.36,4a20.12,20.12,0,0,0,7.06,1.15c.65,0,1.37.14,1.37-2.31a9.61,9.61,0,0,0-.65-3.81H160l-1.37-57.53s2.95,7.92,2.95,12.17-.64,5.11.36,7.85a172.35,172.35,0,0,1,4.4,17c.86,4.75,2.52,15.33,4,17.64a24.84,24.84,0,0,1,1.51,2.73s-1.51,4.18-.36,4.61a41.43,41.43,0,0,0,6.77.65c1.29,0,6.62.07,7.41.07s2.45-2,1-3-3.82-2.74-3.82-2.74-.28-2.81-.28-5.76-2.16-9.43-2.88-12.74-1.8-16.78-1.8-19.59a13.46,13.46,0,0,0-1.8-7.34c-1.3-2-2.24-6.91-1.8-8.71a18.51,18.51,0,0,0,.5-5.11c-.14-1.52-1-12.39-1.8-15.7a21.9,21.9,0,0,1-.14-9.65c.64-2.16.14-4.17-1.88-5.11a4.16,4.16,0,0,1-2.88-3.6,5.73,5.73,0,0,0-1-2.52s.93-4.61,1.44-7.34.72-3.82.72-3.82a32.93,32.93,0,0,0,5-.14c1-.22.86-.87.86-.87s-1.3-10.87-2-16-1.94-12.82-3.88-13.75A36.52,36.52,0,0,0,160,36.75c-4.18-.79-8.14-1.15-8.14-1.15s.08-4.4.36-7.42.29-9.65-2.8-11.16A15.34,15.34,0,0,0,143.39,15.51Z"/></svg>