<svg xmlns="http://www.w3.org/2000/svg" viewBox="0 0 304.25 188.21"><defs><style>.cls-1{fill:#231f20;}</style></defs><g id="Layer_3" data-name="Layer 3"><path class="cls-1" d="M142,14.51c-4.68-.79-9.29,1.29-10.58,4.25a14.85,14.85,0,0,0-1.59,6.91c0,1.8-.28,1.15-.43,2a4.85,4.85,0,0,0,.07,2.67c.44,1.08,1.66,2.16,1.8,3.31s.29,2.16-.07,2.16-3.74,2.74-5.4,6-1.8,6.76-3.45,9.64-2.67,3.1-3.75,4.61a30.21,30.21,0,0,0-2.3,4.32S108.74,62,105.71,61.6a69.68,69.68,0,0,1-10.22-2.88c-1.44-.65-2.74-1.88-4-2l-5-.22S68.78,35.24,63.74,30.42,57,23.65,57,23.65s3.82-1.51,3.6-5-1-4.24-3.17-4-3.67.87-4.1,3.39-.43,2.8.58,4.17,11.52,11.23,19,21.1S84.62,57.56,84.62,57.56s-1.08,1.16-.87,1.88a2,2,0,0,0,.87,1.15s-.87.21-.43,1.22a1.51,1.51,0,0,0,1.29.94,2.81,2.81,0,0,0,.58,2.88,3.48,3.48,0,0,0,3,.86s.14,2.23,1.22,2.23h2.24L93.33,70l2.16-.65-.5-1h2.8l1.59-.79a78.48,78.48,0,0,0,11.52,3.67,41.43,41.43,0,0,0,13,.94l3-3s.58,4.9,1.37,9,1.37,7.13,1.37,7.13S124.87,88,124.43,90a4.66,4.66,0,0,0,1.66,4.76c1.22.79,1.22,4.75.58,7.12a60.08,60.08,0,0,0-1.88,17.36c.22,9-.14,11.66-1.36,14.54s-2.16,8.57-3.39,15.7-2.23,10.72-2.23,11.88a39.72,39.72,0,0,0,.94,5.18l.43,2.45a5.9,5.9,0,0,0-1.8,3.09c-.07,1.52,1.22,3-1.37,5.69s-4.32,6-1.58,6,8.71.57,9.93.14,2.59-1.22,2.59-3.31a12.41,12.41,0,0,1,.22-2.88l.72-.22,2.38-5.61.21-5s3.89-10.66,4.75-16.27,5.48-21.39,7.06-27.65,2.74-9.29,3.24-11a22.21,22.21,0,0,0,.79-3.24,38.5,38.5,0,0,1,6.7,12.46,76.85,76.85,0,0,1,3.89,18.94c0,2,2.66,6,4.75,9.57s4.25,7.49,5.11,10.95a41.15,41.15,0,0,1,1.22,6,15.67,15.67,0,0,0,.65,5.4,21.39,21.39,0,0,0,3.53,5.4s-.86,4.83,1.22,5.4a46.11,46.11,0,0,0,10.59.72c4.17-.07,4.89-1.08,3.17-3.16a10.13,10.13,0,0,0-4.4-2.88s-.64-5.91-1.08-8.14a14.41,14.41,0,0,0-3.09-6.19c-1.37-1.3-1.87-6.55-2.45-10.66s-2.74-13-3.1-15.19,0-3.31-.72-3.74a5.72,5.72,0,0,0-1.65-.58s-1.66-13.61-3.31-21.1-2.24-9.86-2.24-9.86a17.71,17.71,0,0,0-.43-3.46,13,13,0,0,0-1.08-2.66s3,.79,2.23-2.3-4.32-10.3-4.32-10.3L161.37,80l1.22-.44a28.45,28.45,0,0,1-1.08-6.69c0-3.1.44-5.33,0-8.5S161.37,50.8,158,47.12s-7.71-8.06-8.79-10a8,8,0,0,0-2-2.67,8.11,8.11,0,0,1,.5-2.59c.43-1.37,1.3-3.1.65-3.46s-.94-.21-.94-.21,2.09-3.6,1.44-6.27-1.44-5.11-3.31-6.19A9.4,9.4,0,0,0,142,14.51Z"/></g></svg>