<svg xmlns="http://www.w3.org/2000/svg" viewBox="0 0 304.25 188.21"><defs><style>.cls-1{fill:#231f20;}</style></defs><g id="Layer_7" data-name="Layer 7"><path class="cls-1" d="M126,30c1.58,3.67,2.08,5,2.08,5a1.27,1.27,0,0,0-.5,1.8,22,22,0,0,0,1.94,2.23s-.36,4-.72,6.34a93.82,93.82,0,0,0-1.36,10.8c0,2.8,1.36,6.48,3,10a20.62,20.62,0,0,0,2.95,5L136,72.36l-.57,2.31s2.45,5.4,4.25,7.63A23.51,23.51,0,0,1,141.59,85H145l-3.38,2.24A27.1,27.1,0,0,0,142.81,93c1.08,3,1.44,3,1.44,3H143s.14,1.08.5,3.67-.36,8.21-.5,11.74-1.44,3.81-1.44,7,.21,7.2-1.73,8.43-2.59,2.08-4.18,4.89a148.2,148.2,0,0,0-8.2,20.23c-1.44,5.12-4.4,6.84-5.26,9.65s-1.73,6-1.73,6-3.38,5.25-4.75,7.7-4.9,4.18-3.17,6.27,7.71,3.31,10.15,2.08a4.49,4.49,0,0,0,2.45-3.81l4-8.07a4,4,0,0,0,3.53,1.23c1.87-.51,3.46-4.39,6.77-11.38s6.12-12.6,9.5-18.72,4.68-10.51,7.13-15.91,5.26-10.3,5.26-10.3-1.23,8.36.14,11.38S164,133.2,164,133.2a26.37,26.37,0,0,0-.14,10.16,68.09,68.09,0,0,1,1.36,8.56,53.61,53.61,0,0,0,1.23,11c1.22,5,2.16,6,2.16,6a15.08,15.08,0,0,1,.29,6.48c-.65,2.8-2.6,4.75-.15,6s8.43,1.37,13.11,1.23,8.06-.22,6.84-2.16-4.54-3-4.54-3l-2.45-1.58.36-4,1.73-.15s-2.45-3.67-2.09-5.76a25,25,0,0,0-1.22-11.73c-1.73-4.54-4.18-7-2.81-14.91s-.36-10.8.36-18.5,1.94-9.79,2.09-15.91.14-10.3-2.31-15.77-3.67-7.85-3.67-7.85,6,.15,7.92.36a4.94,4.94,0,0,1,2.81,1s-1.08,1.44,2.09,2.45,3.45,1.58,3.45,1.58,1.23,1.59,2.09,1.73,1.44.36,1.44.36l.51-1h1.72l2,.87.57-1.08,2.45,1.08.87-1.23,93.88,24.12a3.53,3.53,0,0,0,3.53-1.73c1.08-2.08,2.95-3.88,2.09-6.62s-1.94-3.89-4-1.58a18.76,18.76,0,0,0-3.31,5.9l-1.23,1.8-92-24.7s-2.09-5-6.12-7S189,74.81,189,74.81s-6.84-8.71-9.8-12.74-6.33-9.65-6.33-9.65l2.45-2.59s-7.49-5.47-9.22-7.35-6.48-8.92-9.65-10.36c-4.17-1.88-7.85-.29-11.52,1.44A19.58,19.58,0,0,1,143.89,29c0-1.51-.14-6.63-3.81-8.35C133.81,17.64,123,23,126,30Zm37.8,28.37s.72.14,2.08,1.87a46.64,46.64,0,0,0,5.76,5.83c3,2.59,8.07,7.85,8.07,7.85L171,70.42v-.86a39.22,39.22,0,0,1-3.68-4.9C165.92,62.36,163.84,58.4,163.84,58.4Z"/></g></svg>