<svg xmlns="http://www.w3.org/2000/svg" viewBox="0 0 304.25 188.21"><defs><style>.cls-1{fill:#231f20;}</style></defs><g id="Layer_5" data-name="Layer 5"><path class="cls-1" d="M138.46,17.88c-6.76-.15-8.56,3.81-8.56,7.41s2,8.57,3.24,9.22,1.72,3.24,1.72,3.24,0,.5-4,2.59-8.2,4.61-9.21,8.57A50.58,50.58,0,0,0,120,64.46a110.4,110.4,0,0,1-.22,12.17l3.1.72L122.19,82l-3.81,3.6-4.61-.51-6.84,1L54.58,48.76a2.31,2.31,0,0,1,1-2.59c1.51-.86.87-3-.14-5.33s-3.46-1.22-5,.51-2.45,3.81,0,6,55.58,40.24,55.58,40.24-1.72,1.88-1,2.38a2.13,2.13,0,0,0,1.72.14,1.76,1.76,0,0,0,.51,2.09,1.48,1.48,0,0,0,1.87-.36,5.51,5.51,0,0,0,.65,1.73,13,13,0,0,1,.86,1.87h3.24l2.23,1,2-.5,2.37,1.58,1.23-1.37L120.61,95a9.79,9.79,0,0,1,2.73-2.09c1.37-.5,3.32-2.88,6.84-4.75s8.43-4.32,8.43-4.32l.36,2.73s-2.59,2.24-2.59,4.68,1.72,2.38,1.72,2.38S136.38,103.7,135,113s-2.88,19.15-2.88,19.15-2.59,0-3.1,2.09-1.87,9.57-2.59,13.53a30.79,30.79,0,0,1-2.59,8.57c-.79,1.73-1.37,6.19-2,8.93s-1.73,4.39-1.73,5.47v1.15s-3.09,3.46-4.24,4.83-4.47,3.45-2.09,5.11,7.7,2.45,9.79,1.58,3.24-1.22,4.25-4.1a15.14,15.14,0,0,0,1-4L130,175s4.61-13,7.7-18.86,8.43-16.78,10.44-21.53,2.45-10.3,2.74-13,2.45-8.43,3.82-11.31,2.23-4.46,2.23-4.46l2.23.5s.86,9.07,2.52,13.9,4.1,11.45,4.1,11.45a7.54,7.54,0,0,0,.36,5.47l1.37,2.73a55.31,55.31,0,0,0,.36,15.12,176.35,176.35,0,0,1,1.87,18.87s-3.74,7.34-1.87,8a36.94,36.94,0,0,0,10.44,1.37c4,0,7.06.72,8.43,0s1.51-2.38-1.23-3.39-5.47-2.08-6.69-3.6-1.16-2.08-1.16-2.08l3,.21s.36-7.56-.29-10.44S178.5,151,180.22,145s1.88-8.57,1.08-11.52a50.78,50.78,0,0,1-1.72-14.33c.14-5.33-.51-9.14-1.08-15.62s-2.52-7.71-1.16-11.31,1.37-5-1.36-6.84-5.19-3.81-5.19-3.81S170,72.88,169.64,70s-.72-9.43-1.08-12.16a35.52,35.52,0,0,0-1.37-6.05s2.81-3.89-.14-7.2a24.85,24.85,0,0,0-9.94-6.48,36.06,36.06,0,0,0-4.82-1.37l-2.88-1.87-.87-3.1s0-7.2-1.72-8.93C145.45,21.48,145.52,18.09,138.46,17.88Z"/></g></svg>