<svg xmlns="http://www.w3.org/2000/svg" viewBox="0 0 304.25 188.21"><defs><style>.cls-1{fill:#231f20;}</style></defs><g id="Layer_2" data-name="Layer 2"><path class="cls-1" d="M141.64,15.78a8.69,8.69,0,0,0-9.57,4c-1.66,2.45-1.8,6.62-1,9s.5,2.88.5,2.88,2.52,5.33,2.52,6.26-2.37.79-2.37.79A45.08,45.08,0,0,0,125,42.2c-1.94,1.44-3.09,3.67-3.89,8a62.6,62.6,0,0,1-4.82,14,57.71,57.71,0,0,0-2.38,5.62l2.88,1.73s-5.11,6.4-10.44,9.14a63,63,0,0,1-6.84,3.24c-1.8.79-3.88,1.44-5.32,3.82-.44.72-.72,1.29-.94,1.72l-82.58-.36s-1.59-3.45-2.81-5.68a6.54,6.54,0,0,0-3.6-2.81s-1.66.21-1.66,4.82,3.82,5.26,3.82,5.26l86,.79-.36.58,1,1L95,92.39s.14,1.44,1.29,1.44,1.16-.51,1.16-.51l2.37.36s-.5,1.73.94,1.73a1.32,1.32,0,0,0,1.44-1.3l1.44.36,2.59.15a13.67,13.67,0,0,0,3.53-1.44c1.44-.94,4-5,4-5l14.4-4.46,2.59,2.52s-6.12,3.88-6.12,5.76,3.53,3.88,3.53,3.88-1.3,9-1.94,14.26.21,17-.65,21-2.88,4.47-3.31,8-2.24,14.11-3.53,22.6-2.23,9.8-2.09,11.52a3.88,3.88,0,0,0,1.08,2.6,25.39,25.39,0,0,0-4.32,4.32c-1.08,1.72-1.44,3.52,4.18,3.81s7.2.22,8.2-1.44a13.58,13.58,0,0,0,1.3-4.17h1.08s2.45-6.41,2.59-8.5.15-4.1.15-4.1a90.21,90.21,0,0,0,5.25-17.36c1.66-8.78,4.83-17.64,5.33-22s2.88-9.79,3.67-12.16a51.87,51.87,0,0,1,2-5l1.58-.79s2.38,4.46,5.11,10.22,5,10.58,4.68,15.41a22.78,22.78,0,0,0,2.23,11.88c1.44,2.73,5.76,15.55,6.56,18.86s-.29,5.83.64,8.21a7,7,0,0,0,3.53,3.38l1.3,1.88s-1.95,4.68-.15,5.32,7.35.65,9.44.15,4-1.73,2.59-3.82-2.45-1.15-2.88-3.38.79-5,0-7.71-2.45-5.25-3.39-8.64-2.08-15.26-2.73-19.44-1.3-6.55-1.3-6.55l-1.58-1.94s-1.3-14-3-22.39-3.24-14.12-3.24-14.12,2.09-.64.65-4-2.52-5-3-6.55a5.72,5.72,0,0,0-1-2.09l-.43-3.38s1.44,0,1.44-2.23,0-12.68-.15-17.14.8-12.82-4.68-16.34-8.78-6-10.22-7.56A17.22,17.22,0,0,1,147,33.85a11,11,0,0,1,.94-2.23,5.66,5.66,0,0,0,.5-2.38l-1.15-.5s2.23-5.11,0-9A7.42,7.42,0,0,0,141.64,15.78Z"/></g></svg>